PathFileType	4	(X/Y/Z)	55_1_39_p0_0-225.trc
DataRate	CameraRate	NumFrames	NumMarkers	Units	OrigDataRate	OrigDataStartFrame	OrigNumFrames
41.0	41.0	6	27	m	41.0	197	226
Frame#	Time	RHip			RKnee			RAnkle			RBigToe			RSmallToe			RHeel			LHip			LKnee			LAnkle			LBigToe			LSmallToe			LHeel			Neck			Head			Nose			RShoulder			RElbow			RWrist			RThumb			RIndex			RPinky			LShoulder			LElbow			LWrist			LThumb			LIndex			LPinky			
		X1	Y1	Z1	X2	Y2	Z2	X3	Y3	Z3	X4	Y4	Z4	X5	Y5	Z5	X6	Y6	Z6	X7	Y7	Z7	X8	Y8	Z8	X9	Y9	Z9	X10	Y10	Z10	X11	Y11	Z11	X12	Y12	Z12	X13	Y13	Z13	X14	Y14	Z14	X15	Y15	Z15	X16	Y16	Z16	X17	Y17	Z17	X18	Y18	Z18	X19	Y19	Z19	X20	Y20	Z20	X21	Y21	Z21	X22	Y22	Z22	X23	Y23	Z23	X24	Y24	Z24	X25	Y25	Z25	X26	Y26	Z26	X27	Y27	Z27	
197	4.804878048780488	0.3271610897623943	0.5918916016414657	0.772106832667603	0.33127751448141	0.5894276838621425	1.1901975757476324	0.3168965026118167	0.6479392539379027	1.6355935103181007	0.2887697968003036	0.4293054645399293	1.6282340092671754	0.3543728745214265	0.4425957588855485	1.6428750280366948	0.2993411825465231	0.6980138777398391	1.6939574593422904	0.11112474795486792	0.608653205619076	0.7850090100802564	0.12461006199196269	0.6254929223230722	1.1975899071739704	0.1325889043830609	0.6172835632467544	1.5825381111887522	0.1110295244102198	0.4219198040612976	1.6250767209290036	0.0663399115174953	0.4802582076179123	1.6552614260300345	0.14851443039663753	0.6799423862750613	1.6708806240239915	0.22014885053114014	0.6125832818126363	0.21394460212781324	0.22450254480814677	0.5700857117553553	-0.045101765135446545	0.21144220020895993	0.5036272523423355	0.07508499564355792	0.37079906339674595	0.5623167951734203	0.2962336260112373	0.39066961484221957	0.5320207756197582	0.5603665420291012	0.27642514074704355	0.45211123041756573	0.760598334941049	0.17478628385767292	0.4814693000842395	0.8516708153370951	0.17564769516219372	0.48356279808318603	0.8582607594976894	0.2070892545683131	0.4119763485091832	0.8707682501957574	0.07989388746339506	0.6257749301763155	0.29977564460404044	0.047356568180221485	0.5475656485258941	0.5417267442971097	0.15576095449550184	0.4637301522591515	0.7412897021365334	0.20222357245931286	0.41064587610897857	0.8131202393208463	0.20593670680380455	0.41240050959655183	0.8427249066426638	0.19210707047622896	0.42969050775868617	0.8416427881803947
198	4.829268292682927	0.3228296767374222	0.5903474694141136	0.7716422586275873	0.33122862358076016	0.5892184287764533	1.1902183464538618	0.3202302089823175	0.6309729595572953	1.6247457229773712	0.28877959336903103	0.42931043878701297	1.628122593540409	0.3536238862796896	0.44333745077763403	1.6382878058784915	0.30293144353001844	0.6810576834746654	1.6831782817758234	0.1111304165351893	0.6086486021875137	0.7850638228655106	0.12459314423086683	0.6254012558393602	1.1976335745821545	0.1326078897228108	0.6173356641131219	1.582465527902587	0.11111331468068371	0.42203949155329157	1.6251293541464618	0.06601269432760558	0.48200856925483976	1.6518559712490593	0.1495343962300137	0.6796257081061136	1.6648645966390383	0.22015835496924216	0.6125910635925037	0.21395221962228553	0.2244837609327864	0.5700195087876226	-0.04510055909851065	0.2114126714699769	0.5035728574288219	0.07511501192729136	0.3707845994868207	0.5622849475580528	0.2962208902201523	0.3906489862319028	0.5320100008173202	0.5603671864946629	0.280182794102759	0.4542139203973694	0.7571032217996516	0.17798806520139535	0.46816460567504903	0.8464667018484151	0.17576014476746443	0.483596459359216	0.858563325031205	0.20712014271092385	0.41196584366314165	0.8706953175583108	0.07994151370833838	0.6259261121252706	0.29986867706227016	0.05132455068906932	0.5350270027318277	0.5382025730867842	0.15573240322700882	0.4637047139365492	0.7412917102606305	0.20236705976592567	0.4107604495143629	0.8132548502121568	0.20604055811873337	0.4124647908846496	0.8428612470215748	0.1920359579695816	0.4295846695781651	0.841757905916885
199	4.853658536585366	0.3235010530314519	0.5910059310793959	0.7759010366344095	0.3312309756874555	0.5893360958127165	1.190316872662409	0.3201772627986444	0.6309697405251713	1.62477752608709	0.287751125850846	0.4291823195514737	1.6334467836301234	0.35385396123365176	0.4413390879394618	1.6422748043165754	0.3029444078170819	0.6813643815924632	1.6835218057104668	0.11114884683678865	0.6086342333581541	0.7850655772501234	0.12454504453922785	0.6254597487180737	1.1976970891080365	0.1326013231477912	0.6173297091920568	1.5825178780872833	0.11107627867688782	0.4220501173476983	1.6251317957644866	0.06600955655126109	0.48201800575154546	1.6518642207150454	0.14967953383798913	0.6798839883612895	1.6650968620157742	0.2201553527841675	0.6125985975767378	0.21392753800629888	0.2244779275631462	0.5699571097544874	-0.04508173021112559	0.2114230567907116	0.5035531323265747	0.07505423353249203	0.3708206688174558	0.5623201139630348	0.2962296557857587	0.38176862573210396	0.5197453465234179	0.5568963634951277	0.2832877978729609	0.4405364581811591	0.7520126633991137	0.1781322328695824	0.4679758047434629	0.8464395910612351	0.1758172665585817	0.4834900210129065	0.8585478210247527	0.20702677422481205	0.41196777194289586	0.8706831953940927	0.08013180254372773	0.625363294069131	0.3034193647510021	0.05140273823448155	0.5349126668341351	0.5382690107775977	0.15567890038717463	0.4636305445523039	0.741309557483181	0.20261363457381815	0.410621016218062	0.8132578617908518	0.20624655669530784	0.4122948094101692	0.8428331627472399	0.19281621635198423	0.4302434671236782	0.8463981167651244
200	4.878048780487805	0.3234864291197986	0.5909331198407346	0.7761262634711745	0.3312174155536518	0.5892830976974196	1.1903291725005136	0.32021806074379533	0.6310582582185558	1.624733568006797	0.2888837868656065	0.42964751190782724	1.628161037840416	0.3584556856652805	0.4526981735930983	1.6499465592078375	0.30142642943994047	0.6795414619201783	1.6774688790385854	0.11114900362225422	0.6087246504414774	0.7851114179806179	0.12372167202767018	0.6254209298870985	1.2019593443190049	0.13262895455344742	0.6173413482096125	1.5824570651845766	0.11098985250668453	0.42216374166170434	1.6252195720373575	0.06599083281233009	0.48216865873372394	1.6519625369670856	0.14966552417744422	0.6797376413832008	1.664754332641005	0.22019399848611648	0.6125747511445326	0.21391359984013922	0.2244728562708281	0.5699854191481819	-0.04507510985813556	0.21142085976615857	0.5035451193778425	0.07506200381132087	0.37084392948106853	0.5622608355104828	0.2962224578503558	0.3817215397039542	0.5196123379213321	0.5568632131981368	0.2793584879093239	0.43811344603732855	0.7553470507929948	0.17505235184268025	0.4815167958562158	0.8520239346059126	0.1759902795565781	0.48343514733451187	0.858639475874957	0.20710072858161574	0.411638581212721	0.870723804257866	0.07996759805008559	0.6257833600881979	0.29981733972860936	0.051560046925211905	0.5341204367546275	0.541638774709552	0.15629508239195097	0.4643285869393566	0.7452298995107708	0.20250662530838992	0.41084521542236285	0.813381344471297	0.20545796423748888	0.41186434782425474	0.84754232709582	0.1955953318692921	0.4167814857710705	0.8367487680589724
201	4.902439024390244	0.3234660300602993	0.5908701076526096	0.7758715450322824	0.33094879889653395	0.5907513888890644	1.186410117126984	0.32024015743822953	0.6310773602622967	1.6247369074417168	0.28884631556056933	0.4294194192540238	1.6281637144662646	0.354306395617605	0.44249571627072526	1.6429280777689967	0.30138672688223156	0.6794545736848479	1.6773569434015514	0.11504866900425233	0.6114514070313831	0.7821801855292269	0.12371191056789806	0.6254276159037738	1.2019464477965829	0.13264384023344575	0.6174057517427708	1.5823976466765848	0.11094857867607469	0.4221908537865465	1.6251939512276048	0.06600524000435042	0.482181126682244	1.6519578407424527	0.14853374876445088	0.6800274675782643	1.6705072431516204	0.22020255763754182	0.612570327297586	0.21395175301785954	0.22445030653847722	0.5699783373969727	-0.045098535572148456	0.21136561441398027	0.5034033726756447	0.0751267780571528	0.3708841393133176	0.5623107693042256	0.2962465345362833	0.38626421852350024	0.5217334000960705	0.5575126226780931	0.2792426589889529	0.4380185514039353	0.7553221493046436	0.1751538163849802	0.4815140333882676	0.8522948129962513	0.17621410267388685	0.4834701873009472	0.8591245275843108	0.2110638780571635	0.4222766639043863	0.875055995635696	0.08012350696191448	0.6252246223891409	0.30339192266309967	0.05159576651383211	0.5340347642878362	0.5416777685617583	0.15635648296901147	0.46432243114424215	0.7452323608184146	0.20265720993063988	0.41073415175856787	0.8134170754875952	0.2057327045885645	0.4109781810225707	0.8501672367643415	0.19632747630363315	0.41730488944896144	0.8414322514796998
202	4.926829268292683	0.3263386210506821	0.5767799100418963	0.7707703236581527	0.3312608873325737	0.5893391071304402	1.1900988363313578	0.3202365795094851	0.6310898804165027	1.6247326854902657	0.28432696795008744	0.4186742470244375	1.6205757902241842	0.3540509250039454	0.441501426374534	1.6422033870721324	0.3015954261846693	0.6799835605458493	1.6777401103276637	0.11115226729572103	0.6085777984746772	0.7850467818805059	0.12365821608549024	0.6254992765990567	1.202079603247823	0.13267627326350254	0.6174367263069165	1.5823453688619769	0.11100864858728543	0.42229451047518013	1.625271602824314	0.06593704814621043	0.4821194246709208	1.651982018937715	0.1496796850039953	0.6797724308284925	1.664540106992827	0.22021505951281362	0.6125170105799612	0.21396368781886976	0.22448655878715582	0.569881095350186	-0.045121994353135526	0.21137403494873871	0.5034626342416528	0.07508998660831413	0.3708878173710376	0.5623002469071477	0.2962662871595488	0.38171356277003243	0.5195668280898563	0.5568956637516337	0.27918988675187195	0.43794955569854155	0.7552911573959532	0.17842714274837332	0.4682735571622123	0.8471911063914742	0.17649921726110188	0.48229618247381706	0.8632039755086792	0.2112914669099726	0.42139974122139173	0.8784769644088869	0.0801416999153058	0.625306851557417	0.3034489527163675	0.05160829662037048	0.5341577754064979	0.5417088347153062	0.15573622552089592	0.4636253359092662	0.7413505921253661	0.20257782903010027	0.41069137500595565	0.8134270702183738	0.20622538058927628	0.41142265591251465	0.845500817161032	0.19283685684493646	0.4300411941557996	0.8466080999430339
